<?xml version="1.0" encoding="UTF-8" standalone="no"?>
<svg
   xmlns:dc="http://purl.org/dc/elements/1.1/"
   xmlns:cc="http://creativecommons.org/ns#"
   xmlns:rdf="http://www.w3.org/1999/02/22-rdf-syntax-ns#"
   xmlns:svg="http://www.w3.org/2000/svg"
   xmlns="http://www.w3.org/2000/svg"
   xmlns:sodipodi="http://sodipodi.sourceforge.net/DTD/sodipodi-0.dtd"
   xmlns:inkscape="http://www.inkscape.org/namespaces/inkscape"
   version="1.1"
   id="Capa_1"
   x="0px"
   y="0px"
   viewBox="0 0 512 512"
   style="enable-background:new 0 0 512 512;"
   xml:space="preserve"
   sodipodi:docname="javascript.svg"
   inkscape:version="1.0 (4035a4fb49, 2020-05-01)"><metadata
   id="metadata49"><rdf:RDF><cc:Work
       rdf:about=""><dc:format>image/svg+xml</dc:format><dc:type
         rdf:resource="http://purl.org/dc/dcmitype/StillImage" /><dc:title></dc:title></cc:Work></rdf:RDF></metadata><defs
   id="defs47" /><sodipodi:namedview
   inkscape:document-rotation="0"
   pagecolor="#ffffff"
   bordercolor="#666666"
   borderopacity="1"
   objecttolerance="10"
   gridtolerance="10"
   guidetolerance="10"
   inkscape:pageopacity="0"
   inkscape:pageshadow="2"
   inkscape:window-width="1920"
   inkscape:window-height="1057"
   id="namedview45"
   showgrid="false"
   inkscape:zoom="1.5115134"
   inkscape:cx="129.97009"
   inkscape:cy="216.00779"
   inkscape:window-x="-8"
   inkscape:window-y="-8"
   inkscape:window-maximized="1"
   inkscape:current-layer="Capa_1" />
<path
   style="fill:#E4BA42;"
   d="M512,256c0,33.353-6.374,65.212-17.983,94.438c-6.207,15.632-13.908,30.511-22.936,44.45  c-11.243,17.387-24.545,33.322-39.549,47.449c-8.788,8.286-18.15,15.945-28.035,22.925C361.806,494.707,310.93,512,256,512  s-105.806-17.293-147.498-46.738c-12.372-8.735-23.928-18.526-34.534-29.268C28.233,389.757,0,326.165,0,256  S28.233,122.243,73.968,76.006c11.233-11.368,23.531-21.682,36.728-30.793C151.97,16.697,202.031,0,256,0  s104.03,16.697,145.304,45.213c10.083,6.949,19.634,14.618,28.588,22.925c15.684,14.503,29.539,30.96,41.19,48.974  c9.028,13.939,16.729,28.818,22.936,44.45C505.626,190.788,512,222.647,512,256z"
   id="path2" />
<g
   style="fill:#2a2a2a;fill-opacity:1"
   id="g10"
   transform="translate(-51.775281,-9.2044944)">
	<path
   style="fill:#2a2a2a;fill-opacity:1"
   d="m 401.40506,219.73854 c -7.125,-20.664 -36.341,-20.664 -42.04,-3.563 -5.7,17.101 13.539,27.076 43.466,37.053 29.927,9.976 48.454,36.341 44.891,59.854 -3.563,23.513 -13.539,54.154 -72.68,54.154 -36.963,0 -57.505,-23.103 -67.714,-40.429 l 33.511,-20.138 c 0,0 11.401,24.227 32.777,24.227 21.377,0 29.927,-7.125 29.927,-23.514 0,-19.951 -69.118,-27.076 -79.806,-61.279 -10.688,-34.203 3.563,-82.656 53.441,-79.094 31.175,2.227 48.71,17.535 57.478,28.703 z"
   id="path4" />
	<path
   style="fill:#2a2a2a;fill-opacity:1"
   d="m 241.46681,167.69713 c 0,0 0,120.421 0,136.81 0,16.388 -14.251,24.94 -28.502,22.089 -14.251,-2.85 -20.664,-19.951 -20.664,-19.951 l -32.777,22.089 c 0,0 7.125,32.777 52.016,35.628 44.891,2.85 70.542,-24.227 70.542,-47.029 0,-22.802 0,-149.636 0,-149.636 z"
   id="path6" />
	
</g>

<g
   id="g14">
</g>
<g
   id="g16">
</g>
<g
   id="g18">
</g>
<g
   id="g20">
</g>
<g
   id="g22">
</g>
<g
   id="g24">
</g>
<g
   id="g26">
</g>
<g
   id="g28">
</g>
<g
   id="g30">
</g>
<g
   id="g32">
</g>
<g
   id="g34">
</g>
<g
   id="g36">
</g>
<g
   id="g38">
</g>
<g
   id="g40">
</g>
<g
   id="g42">
</g>
<path
   id="path25"
   d="m 242.19326,511.40252 c -1.42382,-0.12079 -5.82472,-0.49516 -9.77978,-0.83195 C 182.3857,506.31058 132.95945,485.86329 92.813825,452.81918 83.1052,444.82795 64.480417,425.82584 56.399705,415.66733 49.30512,406.74851 38.726177,391.25295 33.816636,382.58867 15.395986,350.08022 4.4041089,314.47863 1.1352659,276.73699 0.35412027,267.71798 0.3661644,243.48723 1.1561455,234.73074 5.6101908,185.36014 22.53869,141.17569 52.066467,101.85159 61.796174,88.893892 77.323972,72.402181 90.031456,61.529867 168.74773,-5.8184827 280.82038,-18.805339 373.06967,28.731707 c 50.24942,25.894062 91.7163,69.146536 115.05111,120.005273 17.25242,37.60204 24.7061,75.57811 23.20683,118.23753 -2.17356,61.84546 -28.18694,122.14165 -72.06463,167.038 -42.652,43.64221 -96.02888,69.69107 -156.34303,76.29814 -7.71444,0.84507 -35.00978,1.57685 -40.72669,1.09187 z M 345.74382,356.50537 c 25.98431,-4.62667 41.15481,-17.20042 47.6561,-39.49872 6.54276,-22.44059 2.44388,-39.35167 -13.40031,-55.28666 -9.3143,-9.36769 -17.06231,-13.8834 -33.96815,-19.79741 -27.10054,-9.48033 -38.91042,-18.27 -39.02074,-29.04178 -0.14493,-14.14967 16.30939,-22.43904 30.64283,-15.43727 4.00331,1.95559 8.58981,6.4937 10.36912,10.25975 0.74745,1.58202 1.42018,2.9579 1.49496,3.05749 0.16955,0.22586 31.1848,-22.09437 32.7436,-23.56405 1.12411,-1.05983 1.06594,-1.14325 -4.88988,-7.01209 -3.31514,-3.26673 -8.07443,-7.31323 -10.5762,-8.99224 -20.50951,-13.76441 -50.35963,-17.75727 -69.12883,-9.24691 -19.72452,8.94352 -31.05284,31.97033 -28.93895,58.8235 1.13711,14.44496 4.58341,22.93901 12.57436,30.99188 6.52511,6.57567 13.82426,11.28358 28.48704,18.37402 29.54362,14.28632 32.71687,15.95548 36.12048,18.99969 5.38768,4.81878 6.49163,8.30878 4.94055,15.61905 -1.38385,6.52212 -4.69387,10.79477 -10.37309,13.38979 -6.60885,3.0198 -18.57199,4.09799 -25.48651,2.29698 -9.22607,-2.40308 -18.54701,-10.63806 -25.35199,-22.39827 -0.52852,-0.91338 -2.32263,0.0254 -16.97079,8.88026 -9.00888,5.4459 -16.62288,10.13405 -16.92,10.41812 -0.3308,0.31626 1.00628,2.80485 3.44905,6.41941 4.19333,6.20486 13.10286,15.66609 18.73858,19.89891 9.27892,6.96912 21.39418,11.97525 33.57956,13.87534 5.98033,0.93253 26.71388,0.30936 34.22921,-1.02879 z m -164.53034,-2.17954 c 6.30954,-1.01673 15.55242,-3.94129 20.80877,-6.58415 12.77255,-6.42197 22.82492,-17.32983 26.8517,-29.13687 l 1.52605,-4.47456 0.15582,-78.10167 0.15582,-78.10166 -20.57829,0.1511 -20.5783,0.1511 -0.28764,71.63486 -0.28764,71.63487 -1.86962,3.79745 c -6.50106,13.2045 -24.15958,16.34699 -36.23876,6.44902 -2.66062,-2.18018 -6.73628,-7.61715 -8.77765,-11.70946 -0.71024,-1.42382 -1.36509,-2.67275 -1.45521,-2.7754 -0.34944,-0.398 -32.7835,21.85766 -32.95208,22.61112 -0.26009,1.16238 3.4002,8.81013 6.09642,12.73778 12.36509,18.01251 38.39436,26.39541 67.43061,21.71647 z"
   style="fill:#f0db4f;stroke:none;stroke-width:0.575281;fill-opacity:1" /></svg>
